HIERARCHY
ROOT joint_Root
{
	OFFSET 0.0 0.0 0.0
	CHANNELS 6 Xposition Yposition Zposition Zrotation Xrotation Yrotation 
	JOINT Hips
	{
		OFFSET 4.5925 91.4895 -427.239
		CHANNELS 6 Xposition Yposition Zposition Zrotation Xrotation Yrotation 
		JOINT Spine
		{
			OFFSET 15.7357 0.0 0.0
			CHANNELS 6 Xposition Yposition Zposition Zrotation Xrotation Yrotation 
			JOINT Chest
			{
				OFFSET 8.98455 -0.406207 0.0
				CHANNELS 6 Xposition Yposition Zposition Zrotation Xrotation Yrotation 
				JOINT Neck
				{
					OFFSET 16.3773 0.0 0.0
					CHANNELS 6 Xposition Yposition Zposition Zrotation Xrotation Yrotation 
					JOINT Head
					{
						OFFSET 6.45672 0.0 0.0
						CHANNELS 6 Xposition Yposition Zposition Zrotation Xrotation Yrotation 
						End Site
						{
							OFFSET 0.0 0.0 0.0
						}
					}
				}
				JOINT Shoulder_L
				{
					OFFSET 12.9942 -0.242716 4.98039
					CHANNELS 6 Xposition Yposition Zposition Zrotation Xrotation Yrotation 
					JOINT UpperArm_L
					{
						OFFSET 5.34809 0.0 0.0
						CHANNELS 6 Xposition Yposition Zposition Zrotation Xrotation Yrotation 
						JOINT LowerArm_L
						{
							OFFSET 24.3286 1.87007e-05 0.0
							CHANNELS 6 Xposition Yposition Zposition Zrotation Xrotation Yrotation 
							JOINT Hand_L
							{
								OFFSET 22.2916 0.0 0.0
								CHANNELS 6 Xposition Yposition Zposition Zrotation Xrotation Yrotation 
								End Site
								{
									OFFSET 0.0 0.0 0.0
								}
							}
						}
					}
				}
				JOINT Shoulder_R
				{
					OFFSET 12.9945 -0.242716 -4.98039
					CHANNELS 6 Xposition Yposition Zposition Zrotation Xrotation Yrotation 
					JOINT UpperArm_R
					{
						OFFSET -5.34813 0.0 0.0
						CHANNELS 6 Xposition Yposition Zposition Zrotation Xrotation Yrotation 
						JOINT LowerArm_R
						{
							OFFSET -24.3289 0.000322201 0.0
							CHANNELS 6 Xposition Yposition Zposition Zrotation Xrotation Yrotation 
							JOINT Hand_R
							{
								OFFSET -22.2915 -0.000108084 0.0
								CHANNELS 6 Xposition Yposition Zposition Zrotation Xrotation Yrotation 
								End Site
								{
									OFFSET 0.0 0.0 0.0
								}
							}
						}
					}
				}
			}
		}
		JOINT UpperLeg_L
		{
			OFFSET -2.19248 -6.46944 0.0
			CHANNELS 6 Xposition Yposition Zposition Zrotation Xrotation Yrotation 
			JOINT LowerLeg_L
			{
				OFFSET 39.0811 0.0 -1.23785e-05
				CHANNELS 6 Xposition Yposition Zposition Zrotation Xrotation Yrotation 
				JOINT Foot_L
				{
					OFFSET 40.9854 0.0 -1.26872e-05
					CHANNELS 6 Xposition Yposition Zposition Zrotation Xrotation Yrotation 
					JOINT Toes_L
					{
						OFFSET 11.7543 0.0 0.0
						CHANNELS 6 Xposition Yposition Zposition Zrotation Xrotation Yrotation 
						End Site
						{
							OFFSET 0.0 0.0 0.0
						}
					}
				}
			}
		}
		JOINT UpperLeg_R
		{
			OFFSET -2.19251 6.46944 0.0
			CHANNELS 6 Xposition Yposition Zposition Zrotation Xrotation Yrotation 
			JOINT LowerLeg_R
			{
				OFFSET -39.0811 -0.00228153 -0.0401928
				CHANNELS 6 Xposition Yposition Zposition Zrotation Xrotation Yrotation 
				JOINT Foot_R
				{
					OFFSET -40.9854 0.0 0.0
					CHANNELS 6 Xposition Yposition Zposition Zrotation Xrotation Yrotation 
					JOINT Toes_R
					{
						OFFSET -11.7543 0.0 0.0
						CHANNELS 6 Xposition Yposition Zposition Zrotation Xrotation Yrotation 
						End Site
						{
							OFFSET 0.0 0.0 0.0
						}
					}
				}
			}
		}
	}
}
MOTION
Frames:	6
Frame Time:	0.0333333
0.000000 0.000000 0.000000 0.000000 0.000000 -0.000000 -0.755871 90.617300 0.539175 89.883500 -7.645140 11.192900 15.735700 0.000005 -0.000001 82.535800 82.745100 -82.190700 8.984550 -0.406207 -0.000000 6.629420 -1.882440 0.798521 16.377300 -0.000001 -0.000001 1.030460 -3.804000 0.812545 6.456720 -0.000001 -0.000000 -17.311000 -1.957810 -2.000040 12.994200 -0.242716 4.980390 -91.810400 6.997150 -75.454700 5.348090 -0.000007 -0.000001 -63.319300 36.856000 -15.140900 24.328600 0.000019 0.000005 9.841310 25.376000 -22.037200 22.291600 -0.000001 0.000005 7.305280 5.333410 -0.885379 12.994500 -0.242716 -4.980390 88.310600 11.382000 -81.500200 -5.348130 -0.000001 -0.000004 -63.962100 37.287200 -7.895910 -24.328900 0.000322 -0.000009 1.199370 3.750440 -17.762800 -22.291500 -0.000108 -0.000004 11.796400 5.414190 -3.404400 -2.192480 -6.469440 -0.000000 -173.441000 -17.034500 2.441630 39.081100 -0.000007 -0.000012 -0.196594 0.328729 30.881500 40.985400 -0.000006 -0.000013 -0.261769 4.371600 -71.244000 11.754300 -0.000000 0.000003 -0.000088 -0.000921 -16.613000 -2.192510 6.469440 -0.000001 173.431000 18.973600 -177.473000 -39.081100 -0.002282 -0.040193 -0.211070 0.359037 30.840500 -40.985400 0.000008 0.000006 3.663000 13.890800 -71.865400 -11.754300 -0.000006 -0.000006 -0.001319 -0.019840 -17.379900
0.000000 0.000000 0.000000 0.000000 0.000000 -0.000000 -0.739685 90.624700 0.461541 89.938900 -7.426610 11.195800 15.735700 0.000005 -0.000001 82.307000 82.721600 -81.929700 8.984550 -0.406207 -0.000000 6.669300 -1.946090 0.867314 16.377300 -0.000001 -0.000001 1.166960 -3.947760 0.826790 6.456720 -0.000001 -0.000000 -17.085700 -2.113470 -1.922680 12.994200 -0.242716 4.980390 -91.794900 6.920380 -75.421600 5.348090 -0.000007 -0.000001 -62.899000 34.570000 -15.397300 24.328600 0.000019 0.000005 9.875780 25.571900 -21.965300 22.291600 -0.000001 0.000005 7.190270 5.331810 -0.838647 12.994500 -0.242716 -4.980390 88.305300 11.304100 -81.416600 -5.348130 -0.000001 -0.000004 -63.521900 36.331100 -7.819720 -24.328900 0.000322 -0.000009 1.189090 3.850410 -17.190700 -22.291500 -0.000108 -0.000004 11.826500 5.413960 -3.396400 -2.192480 -6.469440 -0.000000 -173.563000 -16.893500 2.345890 39.081100 -0.000007 -0.000012 -0.193771 0.324170 30.869000 40.985400 -0.000006 -0.000013 -0.223889 4.409990 -71.168300 11.754300 -0.000000 0.000003 -0.000088 -0.000922 -16.613000 -2.192510 6.469440 -0.000001 173.359000 19.070000 -177.510000 -39.081100 -0.002282 -0.040193 -0.214034 0.363742 30.858400 -40.985400 0.000008 0.000006 3.630810 13.811200 -71.831600 -11.754300 -0.000006 -0.000006 -0.001378 -0.020645 -17.412600
0.000000 0.000000 0.000000 0.000000 0.000000 -0.000000 -0.736072 90.631500 0.387294 89.995800 -7.200030 11.262300 15.735700 0.000005 -0.000001 82.309200 82.688800 -81.905000 8.984550 -0.406207 -0.000000 6.734770 -1.954190 0.922556 16.377300 -0.000001 -0.000001 1.374750 -4.057500 0.835074 6.456720 -0.000001 -0.000000 -16.879100 -2.236230 -1.902150 12.994200 -0.242716 4.980390 -91.783400 6.859440 -75.388600 5.348090 -0.000007 -0.000001 -61.873400 32.439100 -16.292200 24.328600 0.000019 0.000005 10.092800 25.779000 -22.258300 22.291600 -0.000001 0.000005 7.035560 5.338510 -1.035560 12.994500 -0.242716 -4.980390 88.318100 11.178500 -81.387400 -5.348130 -0.000001 -0.000004 -63.161000 35.407200 -7.648100 -24.328900 0.000322 -0.000009 1.205830 4.002290 -16.795600 -22.291500 -0.000108 -0.000004 11.877300 5.411870 -3.327260 -2.192480 -6.469440 -0.000000 -173.639000 -16.771600 2.318320 39.081100 -0.000007 -0.000012 -0.193383 0.323704 30.854800 40.985400 -0.000006 -0.000013 -0.184648 4.510810 -71.085500 11.754300 -0.000000 0.000003 -0.000091 -0.000950 -16.614100 -2.192510 6.469440 -0.000001 173.301000 19.141600 -177.493000 -39.081100 -0.002282 -0.040193 -0.211851 0.359703 30.885500 -40.985400 0.000008 0.000006 3.602620 13.661500 -71.799100 -11.754300 -0.000006 -0.000006 -0.001454 -0.021664 -17.454000
0.000000 0.000000 0.000000 0.000000 0.000000 -0.000000 -0.738832 90.630900 0.303291 90.061300 -6.894040 11.327700 15.735700 0.000005 -0.000001 82.305800 82.660200 -81.892400 8.984550 -0.406207 -0.000000 6.791660 -1.962500 0.942370 16.377300 -0.000001 -0.000001 1.539710 -4.184420 0.817056 6.456720 -0.000001 -0.000000 -16.557000 -2.356830 -1.896610 12.994200 -0.242716 4.980390 -91.772100 6.836830 -75.431700 5.348090 -0.000007 -0.000001 -60.107100 30.614600 -17.802900 24.328600 0.000019 0.000005 10.548000 25.899800 -23.088300 22.291600 -0.000001 0.000005 6.810660 5.339880 -1.075850 12.994500 -0.242716 -4.980390 88.331900 11.031300 -81.346000 -5.348130 -0.000001 -0.000004 -62.828200 34.723900 -7.529050 -24.328900 0.000322 -0.000009 1.191730 4.032080 -16.494600 -22.291500 -0.000108 -0.000004 11.874400 5.411920 -3.328800 -2.192480 -6.469440 -0.000000 -173.751000 -16.577100 2.253280 39.081100 -0.000007 -0.000012 -0.190138 0.317952 30.880100 40.985400 -0.000006 -0.000013 -0.147466 4.581990 -71.016500 11.754300 -0.000000 0.000003 -0.000096 -0.000996 -16.615800 -2.192510 6.469440 -0.000001 173.223000 19.261900 -177.488000 -39.081100 -0.002282 -0.040193 -0.211625 0.358367 30.952800 -40.985400 0.000008 0.000006 3.574460 13.490100 -71.790900 -11.754300 -0.000006 -0.000006 -0.001414 -0.021123 -17.432100
0.000000 0.000000 0.000000 0.000000 0.000000 -0.000000 -0.749685 90.637100 0.206002 90.136900 -6.514920 11.405700 15.735700 0.000005 -0.000001 82.310700 82.635600 -81.897300 8.984550 -0.406207 -0.000000 6.840700 -1.967590 0.943527 16.377300 -0.000001 -0.000001 1.768920 -4.260490 0.701224 6.456720 -0.000001 -0.000000 -16.248400 -2.522920 -1.859390 12.994200 -0.242716 4.980390 -91.772000 6.860800 -75.480900 5.348090 -0.000007 -0.000001 -57.686300 28.979700 -20.001400 24.328600 0.000019 0.000005 10.941300 25.616500 -24.090900 22.291600 -0.000001 0.000005 6.810930 5.342230 -1.145320 12.994500 -0.242716 -4.980390 88.362600 10.883500 -81.391000 -5.348130 -0.000001 -0.000004 -62.549500 34.224800 -7.384670 -24.328900 0.000322 -0.000009 1.196800 4.117900 -16.234500 -22.291500 -0.000108 -0.000004 11.913100 5.412600 -3.351470 -2.192480 -6.469440 -0.000000 -173.848000 -16.389700 2.199680 39.081100 -0.000007 -0.000012 -0.190715 0.319017 30.872100 40.985400 -0.000006 -0.000013 -0.094059 4.752970 -70.910400 11.754300 -0.000000 0.000003 -0.000084 -0.000890 -16.611800 -2.192510 6.469440 -0.000001 173.105000 19.452400 -177.435000 -39.081100 -0.002282 -0.040193 -0.213514 0.361065 30.984400 -40.985400 0.000008 0.000006 3.543130 13.334100 -71.770800 -11.754300 -0.000006 -0.000006 -0.001496 -0.022224 -17.476800
0.000000 0.000000 0.000000 0.000000 0.000000 -0.000000 -0.778892 90.640800 0.081920 90.200400 -6.051930 11.450100 15.735700 0.000005 -0.000001 82.439700 82.622200 -82.037800 8.984550 -0.406207 -0.000000 6.871320 -1.938090 0.919372 16.377300 -0.000001 -0.000001 1.962480 -4.350700 0.574117 6.456720 -0.000001 -0.000000 -15.885400 -2.740020 -1.851760 12.994200 -0.242716 4.980390 -91.806700 7.015780 -75.519800 5.348090 -0.000007 -0.000001 -54.789200 26.951900 -22.909300 24.328600 0.000019 0.000005 11.326400 25.306800 -25.106500 22.291600 -0.000001 0.000005 6.627540 5.347170 -1.292510 12.994500 -0.242716 -4.980390 88.385600 10.762300 -81.417000 -5.348130 -0.000001 -0.000004 -62.349700 33.857900 -7.232630 -24.328900 0.000322 -0.000009 1.232320 4.277790 -16.099900 -22.291500 -0.000108 -0.000004 11.928500 5.410410 -3.278760 -2.192480 -6.469440 -0.000000 -173.969000 -16.105100 2.058640 39.081100 -0.000007 -0.000012 -0.188550 0.315033 30.901100 40.985400 -0.000006 -0.000013 -0.056080 4.883410 -70.796300 11.754300 -0.000000 0.000003 -0.000085 -0.000898 -16.612100 -2.192510 6.469440 -0.000001 173.044000 19.670400 -177.449000 -39.081100 -0.002282 -0.040193 -0.213554 0.360320 31.041300 -40.985400 0.000008 0.000006 3.523760 13.112700 -71.745800 -11.754300 -0.000006 -0.000006 -0.001394 -0.020852 -17.421100
